{
	"asset":{
		"version":"2.0",
		"generator":"Maxon Cinema 4D 2024.5.1 (#200000219)"
	},
	"scenes":[{
		"nodes":[0]
	}],
	"nodes":[{
		"name":"aro",
		"children":[1,
		2,
		3,
		4,
		5,
		6,
		7]
	},
	{
		"name":"banda.2",
		"translation":[-35.6169548034668,
		-5.0,
		17.723554611206056],
		"rotation":[0.0,
		0.0,
		0.0,
		-1.0],
		"children":[8],
		"scale":[1.0,
		1.0,
		1.0]
	},
	{
		"name":"banda.1",
		"translation":[-35.6169548034668,
		8.906123161315918,
		-13.830411911010743],
		"rotation":[0.7100124359130859,
		-8.65948714978816e-17,
		8.65948714978816e-17,
		0.7041891813278198],
		"children":[9],
		"scale":[1.0,
		1.0,
		1.0]
	},
	{
		"name":"banda",
		"translation":[-35.6169548034668,
		-5.0,
		0.12494334578514099],
		"rotation":[0.0,
		0.0,
		0.0,
		-1.0],
		"children":[10],
		"scale":[1.0,
		1.0,
		1.0]
	},
	{
		"name":"aro",
		"translation":[-1.6162142753601075,
		8.513482093811036,
		0.12494334578514099],
		"rotation":[0.0,
		0.0,
		0.0,
		-1.0],
		"children":[11],
		"scale":[1.0,
		1.0,
		1.0]
	},
	{
		"name":"superior",
		"translation":[0.0,
		-0.4964189827442169,
		10.811098098754883],
		"rotation":[0.0,
		0.0,
		0.0,
		-1.0],
		"children":[12],
		"scale":[1.0,
		1.0,
		1.0]
	},
	{
		"name":"lat1",
		"translation":[0.0,
		-7.374176502227783,
		14.791698455810547],
		"rotation":[0.0,
		0.0,
		0.0,
		-1.0],
		"children":[13],
		"scale":[1.0,
		1.0,
		1.0]
	},
	{
		"name":"lat2",
		"translation":[0.0,
		-5.142005920410156,
		12.5],
		"rotation":[0.0,
		0.0,
		0.0,
		-1.0],
		"children":[14],
		"scale":[1.0,
		1.0,
		1.0]
	},
	{
		"name":"Cylinder",
		"mesh":0,
		"translation":[35.256866455078128,
		13.78776741027832,
		-8.78708267211914],
		"rotation":[0.003152102930471301,
		-0.06415250897407532,
		-0.004225865937769413,
		0.9979261755943298],
		"scale":[1.0,
		1.0,
		1.0]
	},
	{
		"name":"Cylinder",
		"mesh":1,
		"translation":[35.355411529541019,
		13.797903060913086,
		-8.471931457519532],
		"rotation":[-0.02129007875919342,
		-0.064029760658741,
		-0.005795823410153389,
		0.997704029083252],
		"scale":[1.0,
		1.0,
		1.0]
	},
	{
		"name":"Cylinder",
		"mesh":2,
		"translation":[35.39012908935547,
		13.78638744354248,
		-8.741690635681153],
		"rotation":[0.003152102930471301,
		-0.06415250897407532,
		-0.004225865937769413,
		0.9979261755943298],
		"scale":[1.0,
		1.0,
		1.0]
	},
	{
		"name":"Disc",
		"translation":[0.0,
		0.0,
		0.0],
		"rotation":[0.0,
		0.0,
		0.7080938816070557,
		-0.7061182856559753],
		"children":[15],
		"scale":[1.0,
		1.0,
		1.0]
	},
	{
		"name":"Cylinder.4",
		"mesh":3,
		"translation":[0.0,
		19.500471115112306,
		-10.630602836608887],
		"rotation":[0.7094674706459045,
		-2.8958587704049366e-19,
		2.8958587704049366e-19,
		-0.704738199710846],
		"scale":[1.0,
		1.0,
		1.0]
	},
	{
		"name":"Cylinder.1",
		"mesh":4,
		"translation":[0.0,
		13.335601806640625,
		-25.001026153564454],
		"rotation":[0.0,
		0.0,
		0.0,
		-1.0],
		"scale":[1.0,
		1.0,
		1.0]
	},
	{
		"name":"Cylinder",
		"mesh":5,
		"translation":[0.0,
		11.103431701660157,
		-1.9762367010116578],
		"rotation":[0.0,
		0.0,
		0.0,
		-1.0],
		"scale":[1.0,
		1.0,
		1.0]
	},
	{
		"name":"Disc-Logo White",
		"mesh":6
	}],
	"meshes":[{
		"name":"Cylinder",
		"primitives":[{
			"attributes":{
				"POSITION":1,
				"NORMAL":2,
				"TEXCOORD_0":3
			},
			"indices":0,
			"material":0
		}]
	},
	{
		"name":"Cylinder",
		"primitives":[{
			"attributes":{
				"POSITION":5,
				"NORMAL":6,
				"TEXCOORD_0":7
			},
			"indices":4,
			"material":0
		}]
	},
	{
		"name":"Cylinder",
		"primitives":[{
			"attributes":{
				"POSITION":9,
				"NORMAL":10,
				"TEXCOORD_0":11
			},
			"indices":8,
			"material":0
		}]
	},
	{
		"name":"Cylinder.4",
		"primitives":[{
			"attributes":{
				"POSITION":13,
				"NORMAL":14,
				"TEXCOORD_0":15
			},
			"indices":12,
			"material":1
		}]
	},
	{
		"name":"Cylinder.1",
		"primitives":[{
			"attributes":{
				"POSITION":17,
				"NORMAL":18,
				"TEXCOORD_0":19
			},
			"indices":16,
			"material":1
		}]
	},
	{
		"name":"Cylinder",
		"primitives":[{
			"attributes":{
				"POSITION":21,
				"NORMAL":22,
				"TEXCOORD_0":23
			},
			"indices":20,
			"material":1
		}]
	},
	{
		"name":"Disc-Logo White",
		"primitives":[{
			"attributes":{
				"POSITION":25,
				"NORMAL":26,
				"TEXCOORD_0":27
			},
			"indices":24,
			"material":2
		}]
	}],
	"accessors":[{
		"bufferView":0,
		"count":960,
		"type":"SCALAR",
		"componentType":5123,
		"byteOffset":0,
		"min":[0],
		"max":[959]
	},
	{
		"bufferView":1,
		"count":960,
		"type":"VEC3",
		"componentType":5126,
		"byteOffset":0,
		"min":[-1.5218117237091065,
		-0.802351713180542,
		-2.3898420333862306],
		"max":[1.5218117237091065,
		0.802351713180542,
		2.3898420333862306]
	},
	{
		"bufferView":1,
		"count":960,
		"type":"VEC3",
		"componentType":5126,
		"byteOffset":12,
		"min":[-1.0,
		-1.0,
		-1.0],
		"max":[1.0,
		1.0,
		1.0]
	},
	{
		"bufferView":1,
		"count":960,
		"type":"VEC2",
		"componentType":5126,
		"byteOffset":24,
		"min":[0.0,
		0.0],
		"max":[1.0,
		1.0]
	},
	{
		"bufferView":2,
		"count":960,
		"type":"SCALAR",
		"componentType":5123,
		"byteOffset":0,
		"min":[0],
		"max":[959]
	},
	{
		"bufferView":3,
		"count":960,
		"type":"VEC3",
		"componentType":5126,
		"byteOffset":0,
		"min":[-1.588086485862732,
		-0.802351713180542,
		-2.3009588718414308],
		"max":[1.588086485862732,
		0.802351713180542,
		2.3009588718414308]
	},
	{
		"bufferView":3,
		"count":960,
		"type":"VEC3",
		"componentType":5126,
		"byteOffset":12,
		"min":[-1.0,
		-1.0,
		-1.0],
		"max":[1.0,
		1.0,
		1.0]
	},
	{
		"bufferView":3,
		"count":960,
		"type":"VEC2",
		"componentType":5126,
		"byteOffset":24,
		"min":[0.0,
		0.0],
		"max":[1.0,
		1.0]
	},
	{
		"bufferView":4,
		"count":960,
		"type":"SCALAR",
		"componentType":5123,
		"byteOffset":0,
		"min":[0],
		"max":[959]
	},
	{
		"bufferView":5,
		"count":960,
		"type":"VEC3",
		"componentType":5126,
		"byteOffset":0,
		"min":[-1.7038570642471314,
		-0.802351713180542,
		-2.0730714797973635],
		"max":[1.7038570642471314,
		0.802351713180542,
		2.0730714797973635]
	},
	{
		"bufferView":5,
		"count":960,
		"type":"VEC3",
		"componentType":5126,
		"byteOffset":12,
		"min":[-1.0,
		-1.0,
		-1.0],
		"max":[1.0,
		1.0,
		1.0]
	},
	{
		"bufferView":5,
		"count":960,
		"type":"VEC2",
		"componentType":5126,
		"byteOffset":24,
		"min":[0.0,
		0.0],
		"max":[1.0,
		1.0]
	},
	{
		"bufferView":6,
		"count":3456,
		"type":"SCALAR",
		"componentType":5123,
		"byteOffset":0,
		"min":[0],
		"max":[3455]
	},
	{
		"bufferView":7,
		"count":3456,
		"type":"VEC3",
		"componentType":5126,
		"byteOffset":0,
		"min":[-0.4542354643344879,
		-10.54903793334961,
		-0.46488112211227419],
		"max":[0.4542354643344879,
		10.54903793334961,
		0.4648808240890503]
	},
	{
		"bufferView":7,
		"count":3456,
		"type":"VEC3",
		"componentType":5126,
		"byteOffset":12,
		"min":[-1.0,
		-0.9999995231628418,
		-0.9999992847442627],
		"max":[1.0,
		0.9999995231628418,
		0.9999992847442627]
	},
	{
		"bufferView":7,
		"count":3456,
		"type":"VEC2",
		"componentType":5126,
		"byteOffset":24,
		"min":[0.0,
		0.0],
		"max":[1.0,
		1.0]
	},
	{
		"bufferView":8,
		"count":3456,
		"type":"SCALAR",
		"componentType":5123,
		"byteOffset":0,
		"min":[0],
		"max":[3455]
	},
	{
		"bufferView":9,
		"count":3456,
		"type":"VEC3",
		"componentType":5126,
		"byteOffset":0,
		"min":[-0.4542354643344879,
		-13.335602760314942,
		-0.4542354643344879],
		"max":[0.4542354643344879,
		13.335602760314942,
		0.4542354643344879]
	},
	{
		"bufferView":9,
		"count":3456,
		"type":"VEC3",
		"componentType":5126,
		"byteOffset":12,
		"min":[-1.0,
		-1.0,
		-1.0],
		"max":[1.0,
		1.0,
		1.0]
	},
	{
		"bufferView":9,
		"count":3456,
		"type":"VEC2",
		"componentType":5126,
		"byteOffset":24,
		"min":[0.0,
		0.0],
		"max":[1.0,
		1.0]
	},
	{
		"bufferView":10,
		"count":3456,
		"type":"SCALAR",
		"componentType":5123,
		"byteOffset":0,
		"min":[0],
		"max":[3455]
	},
	{
		"bufferView":11,
		"count":3456,
		"type":"VEC3",
		"componentType":5126,
		"byteOffset":0,
		"min":[-0.4542354643344879,
		-13.335602760314942,
		-0.4542354643344879],
		"max":[0.4542354643344879,
		13.335602760314942,
		0.4542354643344879]
	},
	{
		"bufferView":11,
		"count":3456,
		"type":"VEC3",
		"componentType":5126,
		"byteOffset":12,
		"min":[-1.0,
		-1.0,
		-1.0],
		"max":[1.0,
		1.0,
		1.0]
	},
	{
		"bufferView":11,
		"count":3456,
		"type":"VEC2",
		"componentType":5126,
		"byteOffset":24,
		"min":[0.0,
		0.0],
		"max":[1.0,
		1.0]
	},
	{
		"bufferView":12,
		"count":3072,
		"type":"SCALAR",
		"componentType":5123,
		"byteOffset":0,
		"min":[0],
		"max":[3071]
	},
	{
		"bufferView":13,
		"count":3072,
		"type":"VEC3",
		"componentType":5126,
		"byteOffset":0,
		"min":[-9.90625,
		0.08067014813423157,
		-9.90625],
		"max":[9.90625,
		2.50077486038208,
		9.90625]
	},
	{
		"bufferView":13,
		"count":3072,
		"type":"VEC3",
		"componentType":5126,
		"byteOffset":12,
		"min":[-0.9807904958724976,
		-1.0,
		-0.9807904958724976],
		"max":[0.9807904958724976,
		1.0,
		0.9807904958724976]
	},
	{
		"bufferView":13,
		"count":3072,
		"type":"VEC2",
		"componentType":5126,
		"byteOffset":24,
		"min":[0.004687500186264515,
		0.004687500186264515],
		"max":[0.995312511920929,
		0.9953124523162842]
	}],
	"bufferViews":[{
		"buffer":0,
		"byteOffset":0,
		"byteLength":1920,
		"target":34963
	},
	{
		"buffer":0,
		"byteOffset":1920,
		"byteLength":30720,
		"target":34962,
		"byteStride":32
	},
	{
		"buffer":1,
		"byteOffset":0,
		"byteLength":1920,
		"target":34963
	},
	{
		"buffer":1,
		"byteOffset":1920,
		"byteLength":30720,
		"target":34962,
		"byteStride":32
	},
	{
		"buffer":2,
		"byteOffset":0,
		"byteLength":1920,
		"target":34963
	},
	{
		"buffer":2,
		"byteOffset":1920,
		"byteLength":30720,
		"target":34962,
		"byteStride":32
	},
	{
		"buffer":3,
		"byteOffset":0,
		"byteLength":6912,
		"target":34963
	},
	{
		"buffer":3,
		"byteOffset":6912,
		"byteLength":110592,
		"target":34962,
		"byteStride":32
	},
	{
		"buffer":4,
		"byteOffset":0,
		"byteLength":6912,
		"target":34963
	},
	{
		"buffer":4,
		"byteOffset":6912,
		"byteLength":110592,
		"target":34962,
		"byteStride":32
	},
	{
		"buffer":5,
		"byteOffset":0,
		"byteLength":6912,
		"target":34963
	},
	{
		"buffer":5,
		"byteOffset":6912,
		"byteLength":110592,
		"target":34962,
		"byteStride":32
	},
	{
		"buffer":6,
		"byteOffset":0,
		"byteLength":6144,
		"target":34963
	},
	{
		"buffer":6,
		"byteOffset":6144,
		"byteLength":98304,
		"target":34962,
		"byteStride":32
	}],
	"buffers":[{
		"uri":"data:application/octet-stream;base64,",
		"byteLength":32640
	},
	{
		"uri":"data:application/octet-stream;base64,",
		"byteLength":32640
	},
	{
		"uri":"data:application/octet-stream;base64,",
		"byteLength":32640
	},
	{
		"uri":"data:application/octet-stream;base64,",
		"byteLength":117504
	},
	{
		"uri":"data:application/octet-stream;base64,",
		"byteLength":117504
	},
	{
		"uri":"data:application/octet-stream;base64,",
		"byteLength":117504
	},
	{
		"uri":"data:application/octet-stream;base64,",
		"byteLength":104448
	}],
	"materials":[{
		"pbrMetallicRoughness":{
			"baseColorFactor":[0.03529411764705881,
			0.003623644867275714,
			0.003623644867275714,
			1.0],
			"metallicFactor":0.0,
			"roughnessFactor":0.20000000298023225
		},
		"emissiveFactor":[0.0,
		0.0,
		0.0],
		"alphaMode":"OPAQUE",
		"doubleSided":false,
		"name":"Mat"
	},
	{
		"pbrMetallicRoughness":{
			"baseColorFactor":[0.029510587660246908,
			0.12999999999999999,
			0.40392156862745107,
			1.0],
			"metallicFactor":0.0,
			"roughnessFactor":0.8
		},
		"emissiveFactor":[0.0,
		0.0,
		0.0],
		"alphaMode":"OPAQUE",
		"doubleSided":false,
		"name":"White Cyc"
	},
	{
		"pbrMetallicRoughness":{
			"baseColorFactor":[1.0,
			0.004316546762590078,
			0.004316546762590078,
			1.0],
			"metallicFactor":0.0,
			"roughnessFactor":0.35
		},
		"emissiveFactor":[0.0,
		0.0,
		0.0],
		"alphaMode":"OPAQUE",
		"doubleSided":false,
		"name":"Logo White"
	}]
}