{
	"asset":{
		"version":"2.0",
		"generator":"Maxon Cinema 4D 2024.5.1 (#200000219)"
	},
	"scenes":[{
		"nodes":[0,
		1,
		2,
		3,
		4,
		5]
	}],
	"nodes":[{
		"name":"Cube",
		"translation":[0.21378228068351746,
		2.4007210731506349,
		-0.05414750054478645],
		"rotation":[0.0,
		0.0,
		0.0,
		-1.0],
		"children":[6],
		"scale":[1.0,
		1.0,
		1.0]
	},
	{
		"name":"Sphere",
		"translation":[3.5374019145965578,
		5.152785301208496,
		0.3537267744541168],
		"rotation":[0.0,
		0.0,
		0.41061246395111086,
		0.9118099808692932],
		"children":[7],
		"scale":[1.0,
		1.0,
		1.0]
	},
	{
		"name":"Sphere",
		"translation":[3.5350236892700197,
		5.137157440185547,
		-0.4603542983531952],
		"rotation":[0.0,
		0.0,
		0.40745049715042117,
		0.9132273197174072],
		"children":[8],
		"scale":[1.0,
		1.0,
		1.0]
	},
	{
		"name":"Sphere",
		"translation":[5.001728534698486,
		4.758599758148193,
		-0.08694184571504593],
		"rotation":[0.0,
		0.0,
		0.4226182699203491,
		-0.9063078165054321],
		"children":[9],
		"scale":[1.0,
		1.0,
		1.0]
	},
	{
		"name":"Sphere",
		"translation":[2.41123366355896,
		4.786582946777344,
		1.0890154838562012],
		"rotation":[0.27644863724708559,
		0.0,
		0.0,
		-0.9610286951065064],
		"children":[10],
		"scale":[1.0,
		1.0,
		1.0]
	},
	{
		"name":"Sphere",
		"translation":[2.41123366355896,
		4.833440780639648,
		-1.1285077333450318],
		"rotation":[-0.17433062195777894,
		0.0,
		0.0,
		-0.9846871495246887],
		"children":[11],
		"scale":[1.0,
		1.0,
		1.0]
	},
	{
		"name":"Cube",
		"mesh":0
	},
	{
		"name":"Sphere",
		"mesh":1
	},
	{
		"name":"Sphere",
		"mesh":2
	},
	{
		"name":"Sphere",
		"mesh":3
	},
	{
		"name":"Sphere",
		"mesh":4
	},
	{
		"name":"Sphere",
		"mesh":5
	}],
	"meshes":[{
		"name":"Cube",
		"primitives":[{
			"attributes":{
				"POSITION":1,
				"NORMAL":2,
				"TEXCOORD_0":3
			},
			"indices":0,
			"material":0
		}]
	},
	{
		"name":"Sphere",
		"primitives":[{
			"attributes":{
				"POSITION":5,
				"NORMAL":6,
				"TEXCOORD_0":7
			},
			"indices":4,
			"material":1
		}]
	},
	{
		"name":"Sphere",
		"primitives":[{
			"attributes":{
				"POSITION":9,
				"NORMAL":10,
				"TEXCOORD_0":11
			},
			"indices":8,
			"material":1
		}]
	},
	{
		"name":"Sphere",
		"primitives":[{
			"attributes":{
				"POSITION":13,
				"NORMAL":14,
				"TEXCOORD_0":15
			},
			"indices":12,
			"material":1
		}]
	},
	{
		"name":"Sphere",
		"primitives":[{
			"attributes":{
				"POSITION":17,
				"NORMAL":18,
				"TEXCOORD_0":19
			},
			"indices":16,
			"material":2
		}]
	},
	{
		"name":"Sphere",
		"primitives":[{
			"attributes":{
				"POSITION":21,
				"NORMAL":22,
				"TEXCOORD_0":23
			},
			"indices":20,
			"material":2
		}]
	}],
	"accessors":[{
		"bufferView":0,
		"count":56064,
		"type":"SCALAR",
		"componentType":5123,
		"byteOffset":0,
		"min":[0],
		"max":[56063]
	},
	{
		"bufferView":1,
		"count":56064,
		"type":"VEC3",
		"componentType":5126,
		"byteOffset":0,
		"min":[-2.0162575244903566,
		-2.5726921558380129,
		-1.3677787780761719],
		"max":[5.235199451446533,
		3.2769720554351808,
		1.3671780824661255]
	},
	{
		"bufferView":1,
		"count":56064,
		"type":"VEC3",
		"componentType":5126,
		"byteOffset":12,
		"min":[-0.9999988079071045,
		-0.999960720539093,
		-0.9999997615814209],
		"max":[0.9999985694885254,
		0.9999774694442749,
		0.9999970197677612]
	},
	{
		"bufferView":1,
		"count":56064,
		"type":"VEC2",
		"componentType":5126,
		"byteOffset":24,
		"min":[0.0,
		0.0],
		"max":[1.0,
		1.0]
	},
	{
		"bufferView":2,
		"count":4320,
		"type":"SCALAR",
		"componentType":5123,
		"byteOffset":0,
		"min":[0],
		"max":[4319]
	},
	{
		"bufferView":3,
		"count":4320,
		"type":"VEC3",
		"componentType":5126,
		"byteOffset":0,
		"min":[-0.124303437769413,
		-0.24118751287460328,
		-0.12037207931280136],
		"max":[0.124303437769413,
		0.24118751287460328,
		0.12037207931280136]
	},
	{
		"bufferView":3,
		"count":4320,
		"type":"VEC3",
		"componentType":5126,
		"byteOffset":12,
		"min":[-0.9995694160461426,
		-0.9979519248008728,
		-1.0],
		"max":[0.9995694160461426,
		0.9979519248008728,
		1.0]
	},
	{
		"bufferView":3,
		"count":4320,
		"type":"VEC2",
		"componentType":5126,
		"byteOffset":24,
		"min":[0.0,
		0.0624999925494194],
		"max":[1.0,
		0.9375]
	},
	{
		"bufferView":4,
		"count":4320,
		"type":"SCALAR",
		"componentType":5123,
		"byteOffset":0,
		"min":[0],
		"max":[4319]
	},
	{
		"bufferView":5,
		"count":4320,
		"type":"VEC3",
		"componentType":5126,
		"byteOffset":0,
		"min":[-0.124303437769413,
		-0.24118751287460328,
		-0.12037207931280136],
		"max":[0.124303437769413,
		0.24118751287460328,
		0.12037207931280136]
	},
	{
		"bufferView":5,
		"count":4320,
		"type":"VEC3",
		"componentType":5126,
		"byteOffset":12,
		"min":[-0.9995694160461426,
		-0.9979519248008728,
		-1.0],
		"max":[0.9995694160461426,
		0.9979519248008728,
		1.0]
	},
	{
		"bufferView":5,
		"count":4320,
		"type":"VEC2",
		"componentType":5126,
		"byteOffset":24,
		"min":[0.0,
		0.0624999925494194],
		"max":[1.0,
		0.9375]
	},
	{
		"bufferView":6,
		"count":1536,
		"type":"SCALAR",
		"componentType":5123,
		"byteOffset":0,
		"min":[0],
		"max":[1535]
	},
	{
		"bufferView":7,
		"count":1536,
		"type":"VEC3",
		"componentType":5126,
		"byteOffset":0,
		"min":[-0.18154586851596833,
		0.0086797084659338,
		-0.3667467534542084],
		"max":[0.3122674524784088,
		0.323416143655777,
		0.3667467534542084]
	},
	{
		"bufferView":7,
		"count":1536,
		"type":"VEC3",
		"componentType":5126,
		"byteOffset":12,
		"min":[-0.9898436665534973,
		-0.9999710321426392,
		-0.9883801937103272],
		"max":[0.9829954504966736,
		0.9998430013656616,
		0.9883801937103272]
	},
	{
		"bufferView":7,
		"count":1536,
		"type":"VEC2",
		"componentType":5126,
		"byteOffset":24,
		"min":[0.0,
		0.078125],
		"max":[0.99609375,
		0.5]
	},
	{
		"bufferView":8,
		"count":2688,
		"type":"SCALAR",
		"componentType":5123,
		"byteOffset":0,
		"min":[0],
		"max":[2687]
	},
	{
		"bufferView":9,
		"count":2688,
		"type":"VEC3",
		"componentType":5126,
		"byteOffset":0,
		"min":[-0.8228347897529602,
		-1.0150038003921509,
		-0.4651828706264496],
		"max":[0.8228347897529602,
		1.0150038003921509,
		0.4651828706264496]
	},
	{
		"bufferView":9,
		"count":2688,
		"type":"VEC3",
		"componentType":5126,
		"byteOffset":12,
		"min":[-1.0,
		-0.9941405057907105,
		-0.999988317489624],
		"max":[1.0,
		0.9941405057907105,
		0.999988317489624]
	},
	{
		"bufferView":9,
		"count":2688,
		"type":"VEC2",
		"componentType":5126,
		"byteOffset":24,
		"min":[0.0,
		0.078125],
		"max":[1.0,
		0.921875]
	},
	{
		"bufferView":10,
		"count":2688,
		"type":"SCALAR",
		"componentType":5123,
		"byteOffset":0,
		"min":[0],
		"max":[2687]
	},
	{
		"bufferView":11,
		"count":2688,
		"type":"VEC3",
		"componentType":5126,
		"byteOffset":0,
		"min":[-0.8228347897529602,
		-1.0235977172851563,
		-0.444330096244812],
		"max":[0.8228347897529602,
		1.0235977172851563,
		0.444330096244812]
	},
	{
		"bufferView":11,
		"count":2688,
		"type":"VEC3",
		"componentType":5126,
		"byteOffset":12,
		"min":[-1.0,
		-0.9983580708503723,
		-0.9989714622497559],
		"max":[1.0,
		0.9983580708503723,
		0.9989714622497559]
	},
	{
		"bufferView":11,
		"count":2688,
		"type":"VEC2",
		"componentType":5126,
		"byteOffset":24,
		"min":[0.0,
		0.078125],
		"max":[1.0,
		0.921875]
	}],
	"bufferViews":[{
		"buffer":0,
		"byteOffset":0,
		"byteLength":112128,
		"target":34963
	},
	{
		"buffer":0,
		"byteOffset":112128,
		"byteLength":1794048,
		"target":34962,
		"byteStride":32
	},
	{
		"buffer":1,
		"byteOffset":0,
		"byteLength":8640,
		"target":34963
	},
	{
		"buffer":1,
		"byteOffset":8640,
		"byteLength":138240,
		"target":34962,
		"byteStride":32
	},
	{
		"buffer":2,
		"byteOffset":0,
		"byteLength":8640,
		"target":34963
	},
	{
		"buffer":2,
		"byteOffset":8640,
		"byteLength":138240,
		"target":34962,
		"byteStride":32
	},
	{
		"buffer":3,
		"byteOffset":0,
		"byteLength":3072,
		"target":34963
	},
	{
		"buffer":3,
		"byteOffset":3072,
		"byteLength":49152,
		"target":34962,
		"byteStride":32
	},
	{
		"buffer":4,
		"byteOffset":0,
		"byteLength":5376,
		"target":34963
	},
	{
		"buffer":4,
		"byteOffset":5376,
		"byteLength":86016,
		"target":34962,
		"byteStride":32
	},
	{
		"buffer":5,
		"byteOffset":0,
		"byteLength":5376,
		"target":34963
	},
	{
		"buffer":5,
		"byteOffset":5376,
		"byteLength":86016,
		"target":34962,
		"byteStride":32
	}],
	"buffers":[{
		"uri":"data:application/octet-stream;base64,",
		"byteLength":1906176
	},
	{
		"uri":"data:application/octet-stream;base64,",
		"byteLength":146880
	},
	{
		"uri":"data:application/octet-stream;base64,",
		"byteLength":146880
	},
	{
		"uri":"data:application/octet-stream;base64,",
		"byteLength":52224
	},
	{
		"uri":"data:application/octet-stream;base64,",
		"byteLength":91392
	},
	{
		"uri":"data:application/octet-stream;base64,",
		"byteLength":91392
	}],
	"materials":[{
		"pbrMetallicRoughness":{
			"baseColorFactor":[1.0,
			0.8628679764984432,
			0.5999999999999998,
			1.0],
			"metallicFactor":0.0,
			"roughnessFactor":0.8
		},
		"emissiveFactor":[0.0,
		0.0,
		0.0],
		"alphaMode":"OPAQUE",
		"doubleSided":false,
		"name":"White Cyc"
	},
	{
		"pbrMetallicRoughness":{
			"baseColorFactor":[0.0,
			0.0,
			0.0,
			1.0],
			"metallicFactor":0.019000000902451576,
			"roughnessFactor":0.1
		},
		"emissiveFactor":[0.0,
		0.0,
		0.0],
		"alphaMode":"OPAQUE",
		"doubleSided":false,
		"name":"Blue Glass"
	},
	{
		"pbrMetallicRoughness":{
			"baseColorFactor":[0.1079136690647482,
			0.04059054914341908,
			0.013974431965219189,
			1.0],
			"metallicFactor":0.0,
			"roughnessFactor":1.0
		},
		"emissiveFactor":[0.0,
		0.0,
		0.0],
		"alphaMode":"OPAQUE",
		"doubleSided":false,
		"name":"Logo White"
	}]
}