{
	"asset":{
		"version":"2.0",
		"generator":"Maxon Cinema 4D 2024.5.1 (#200000219)"
	},
	"scenes":[{
		"nodes":[0]
	}],
	"nodes":[{
		"name":"jumpbar",
		"children":[1,
		2,
		3,
		4]
	},
	{
		"name":"Thicken.1",
		"translation":[0.0,
		0.11133821308612824,
		-25.0],
		"rotation":[0.0,
		0.0,
		0.0,
		-1.0],
		"children":[5],
		"scale":[1.0,
		1.0,
		1.0]
	},
	{
		"name":"Thicken",
		"translation":[0.0,
		0.11133821308612824,
		0.0],
		"rotation":[0.0,
		0.0,
		0.0,
		-1.0],
		"children":[6],
		"scale":[1.0,
		1.0,
		1.0]
	},
	{
		"name":"barra2",
		"translation":[-5.0,
		10.0,
		-12.5],
		"rotation":[0.0,
		0.0,
		0.0,
		-1.0],
		"children":[7,
		8,
		9],
		"scale":[1.0,
		1.0,
		1.0]
	},
	{
		"name":"barra1",
		"translation":[0.0,
		5.0,
		-12.5],
		"rotation":[0.0,
		0.0,
		0.0,
		-1.0],
		"children":[10,
		11,
		12],
		"scale":[1.0,
		1.0,
		1.0]
	},
	{
		"name":"Plane",
		"mesh":0,
		"translation":[-1.613967776298523,
		0.0,
		0.0],
		"rotation":[0.0,
		0.0,
		0.0,
		-1.0],
		"scale":[1.0,
		1.0,
		1.0]
	},
	{
		"name":"Plane",
		"mesh":1,
		"translation":[-1.613967776298523,
		0.0,
		0.0],
		"rotation":[0.0,
		0.0,
		0.0,
		-1.0],
		"scale":[1.0,
		1.0,
		1.0]
	},
	{
		"name":"Subdivision Surface.2",
		"translation":[5.0,
		-10.0,
		12.5],
		"rotation":[0.0,
		0.0,
		0.0,
		-1.0],
		"children":[13],
		"scale":[1.0,
		1.0,
		1.0]
	},
	{
		"name":"Subdivision Surface.1",
		"translation":[5.0,
		-10.0,
		12.5],
		"rotation":[0.0,
		0.0,
		0.0,
		-1.0],
		"children":[14],
		"scale":[1.0,
		1.0,
		1.0]
	},
	{
		"name":"Subdivision Surface",
		"translation":[5.0,
		-10.0,
		12.5],
		"rotation":[0.0,
		0.0,
		0.0,
		-1.0],
		"children":[15],
		"scale":[1.0,
		1.0,
		1.0]
	},
	{
		"name":"Subdivision Surface.2",
		"translation":[0.0,
		-5.0,
		12.5],
		"rotation":[0.0,
		0.0,
		0.0,
		-1.0],
		"children":[16],
		"scale":[1.0,
		1.0,
		1.0]
	},
	{
		"name":"Subdivision Surface.1",
		"translation":[0.0,
		-5.0,
		12.5],
		"rotation":[0.0,
		0.0,
		0.0,
		-1.0],
		"children":[17],
		"scale":[1.0,
		1.0,
		1.0]
	},
	{
		"name":"Subdivision Surface",
		"translation":[0.0,
		-5.0,
		12.5],
		"rotation":[0.0,
		0.0,
		0.0,
		-1.0],
		"children":[18],
		"scale":[1.0,
		1.0,
		1.0]
	},
	{
		"name":"Cylinder.5",
		"translation":[-3.2549965381622316,
		7.108919620513916,
		-12.480636596679688],
		"rotation":[0.7094674706459045,
		-2.8958587704049366e-19,
		2.8958587704049366e-19,
		-0.704738199710846],
		"children":[19,
		20],
		"scale":[1.0,
		1.0,
		1.0]
	},
	{
		"name":"Cylinder.3",
		"mesh":2,
		"translation":[-3.3172032833099367,
		10.0,
		-25.001026153564454],
		"rotation":[0.0,
		0.0,
		0.0,
		-1.0],
		"scale":[1.0,
		1.0,
		1.0]
	},
	{
		"name":"Cylinder.2",
		"mesh":3,
		"translation":[-3.3172032833099367,
		10.0,
		0.0],
		"rotation":[0.0,
		0.0,
		0.0,
		-1.0],
		"scale":[1.0,
		1.0,
		1.0]
	},
	{
		"name":"Cylinder.5",
		"translation":[-0.09088686853647232,
		4.549792289733887,
		-12.463520050048829],
		"rotation":[0.7094674706459045,
		-2.8958587704049366e-19,
		2.8958587704049366e-19,
		-0.704738199710846],
		"children":[21,
		22],
		"scale":[1.0,
		1.0,
		1.0]
	},
	{
		"name":"Cylinder.1",
		"mesh":4,
		"translation":[0.0,
		10.0,
		-25.001026153564454],
		"rotation":[0.0,
		0.0,
		0.0,
		-1.0],
		"scale":[1.0,
		1.0,
		1.0]
	},
	{
		"name":"Cylinder",
		"mesh":5,
		"translation":[0.0,
		10.0,
		0.0],
		"rotation":[0.0,
		0.0,
		0.0,
		-1.0],
		"scale":[1.0,
		1.0,
		1.0]
	},
	{
		"name":"Cylinder.5",
		"mesh":6
	},
	{
		"name":"Cylinder.5-Mat",
		"mesh":7
	},
	{
		"name":"Cylinder.5",
		"mesh":8
	},
	{
		"name":"Cylinder.5-Mat",
		"mesh":9
	}],
	"meshes":[{
		"name":"Plane",
		"primitives":[{
			"attributes":{
				"POSITION":1,
				"NORMAL":2,
				"TEXCOORD_0":3
			},
			"indices":0,
			"material":0
		}]
	},
	{
		"name":"Plane",
		"primitives":[{
			"attributes":{
				"POSITION":5,
				"NORMAL":6,
				"TEXCOORD_0":7
			},
			"indices":4,
			"material":0
		}]
	},
	{
		"name":"Cylinder.3",
		"primitives":[{
			"attributes":{
				"POSITION":9,
				"NORMAL":10,
				"TEXCOORD_0":11
			},
			"indices":8,
			"material":0
		}]
	},
	{
		"name":"Cylinder.2",
		"primitives":[{
			"attributes":{
				"POSITION":13,
				"NORMAL":14,
				"TEXCOORD_0":15
			},
			"indices":12,
			"material":0
		}]
	},
	{
		"name":"Cylinder.1",
		"primitives":[{
			"attributes":{
				"POSITION":17,
				"NORMAL":18,
				"TEXCOORD_0":19
			},
			"indices":16,
			"material":0
		}]
	},
	{
		"name":"Cylinder",
		"primitives":[{
			"attributes":{
				"POSITION":21,
				"NORMAL":22,
				"TEXCOORD_0":23
			},
			"indices":20,
			"material":0
		}]
	},
	{
		"name":"Cylinder.5",
		"primitives":[{
			"attributes":{
				"POSITION":25,
				"NORMAL":26,
				"TEXCOORD_0":27
			},
			"indices":24,
			"material":1
		}]
	},
	{
		"name":"Cylinder.5-Mat",
		"primitives":[{
			"attributes":{
				"POSITION":29,
				"NORMAL":30,
				"TEXCOORD_0":31
			},
			"indices":28,
			"material":2
		}]
	},
	{
		"name":"Cylinder.5",
		"primitives":[{
			"attributes":{
				"POSITION":33,
				"NORMAL":34,
				"TEXCOORD_0":35
			},
			"indices":32,
			"material":1
		}]
	},
	{
		"name":"Cylinder.5-Mat",
		"primitives":[{
			"attributes":{
				"POSITION":37,
				"NORMAL":38,
				"TEXCOORD_0":39
			},
			"indices":36,
			"material":2
		}]
	}],
	"accessors":[{
		"bufferView":0,
		"count":36,
		"type":"SCALAR",
		"componentType":5123,
		"byteOffset":0,
		"min":[0],
		"max":[35]
	},
	{
		"bufferView":1,
		"count":36,
		"type":"VEC3",
		"componentType":5126,
		"byteOffset":0,
		"min":[-7.5,
		-0.05000000074505806,
		-1.0],
		"max":[7.5,
		0.05000000074505806,
		1.0]
	},
	{
		"bufferView":1,
		"count":36,
		"type":"VEC3",
		"componentType":5126,
		"byteOffset":12,
		"min":[-1.0,
		-1.0,
		-1.0],
		"max":[1.0,
		1.0,
		1.0]
	},
	{
		"bufferView":1,
		"count":36,
		"type":"VEC2",
		"componentType":5126,
		"byteOffset":24,
		"min":[0.0,
		0.0],
		"max":[1.0,
		1.0]
	},
	{
		"bufferView":2,
		"count":36,
		"type":"SCALAR",
		"componentType":5123,
		"byteOffset":0,
		"min":[0],
		"max":[35]
	},
	{
		"bufferView":3,
		"count":36,
		"type":"VEC3",
		"componentType":5126,
		"byteOffset":0,
		"min":[-7.5,
		-0.05000000074505806,
		-1.0],
		"max":[7.5,
		0.05000000074505806,
		1.0]
	},
	{
		"bufferView":3,
		"count":36,
		"type":"VEC3",
		"componentType":5126,
		"byteOffset":12,
		"min":[-1.0,
		-1.0,
		-1.0],
		"max":[1.0,
		1.0,
		1.0]
	},
	{
		"bufferView":3,
		"count":36,
		"type":"VEC2",
		"componentType":5126,
		"byteOffset":24,
		"min":[0.0,
		0.0],
		"max":[1.0,
		1.0]
	},
	{
		"bufferView":4,
		"count":3456,
		"type":"SCALAR",
		"componentType":5123,
		"byteOffset":0,
		"min":[0],
		"max":[3455]
	},
	{
		"bufferView":5,
		"count":3456,
		"type":"VEC3",
		"componentType":5126,
		"byteOffset":0,
		"min":[-0.4542354643344879,
		-10.0,
		-0.4542354643344879],
		"max":[0.4542354643344879,
		10.0,
		0.4542354643344879]
	},
	{
		"bufferView":5,
		"count":3456,
		"type":"VEC3",
		"componentType":5126,
		"byteOffset":12,
		"min":[-1.0,
		-1.0,
		-1.0],
		"max":[1.0,
		1.0,
		1.0]
	},
	{
		"bufferView":5,
		"count":3456,
		"type":"VEC2",
		"componentType":5126,
		"byteOffset":24,
		"min":[0.0,
		0.0],
		"max":[1.0,
		1.0]
	},
	{
		"bufferView":6,
		"count":3456,
		"type":"SCALAR",
		"componentType":5123,
		"byteOffset":0,
		"min":[0],
		"max":[3455]
	},
	{
		"bufferView":7,
		"count":3456,
		"type":"VEC3",
		"componentType":5126,
		"byteOffset":0,
		"min":[-0.4542354643344879,
		-10.0,
		-0.4542354643344879],
		"max":[0.4542354643344879,
		10.0,
		0.4542354643344879]
	},
	{
		"bufferView":7,
		"count":3456,
		"type":"VEC3",
		"componentType":5126,
		"byteOffset":12,
		"min":[-1.0,
		-1.0,
		-1.0],
		"max":[1.0,
		1.0,
		1.0]
	},
	{
		"bufferView":7,
		"count":3456,
		"type":"VEC2",
		"componentType":5126,
		"byteOffset":24,
		"min":[0.0,
		0.0],
		"max":[1.0,
		1.0]
	},
	{
		"bufferView":8,
		"count":3456,
		"type":"SCALAR",
		"componentType":5123,
		"byteOffset":0,
		"min":[0],
		"max":[3455]
	},
	{
		"bufferView":9,
		"count":3456,
		"type":"VEC3",
		"componentType":5126,
		"byteOffset":0,
		"min":[-0.4542354643344879,
		-10.0,
		-0.4542354643344879],
		"max":[0.4542354643344879,
		10.0,
		0.4542354643344879]
	},
	{
		"bufferView":9,
		"count":3456,
		"type":"VEC3",
		"componentType":5126,
		"byteOffset":12,
		"min":[-1.0,
		-1.0,
		-1.0],
		"max":[1.0,
		1.0,
		1.0]
	},
	{
		"bufferView":9,
		"count":3456,
		"type":"VEC2",
		"componentType":5126,
		"byteOffset":24,
		"min":[0.0,
		0.0],
		"max":[1.0,
		1.0]
	},
	{
		"bufferView":10,
		"count":3456,
		"type":"SCALAR",
		"componentType":5123,
		"byteOffset":0,
		"min":[0],
		"max":[3455]
	},
	{
		"bufferView":11,
		"count":3456,
		"type":"VEC3",
		"componentType":5126,
		"byteOffset":0,
		"min":[-0.4542354643344879,
		-10.0,
		-0.4542354643344879],
		"max":[0.4542354643344879,
		10.0,
		0.4542354643344879]
	},
	{
		"bufferView":11,
		"count":3456,
		"type":"VEC3",
		"componentType":5126,
		"byteOffset":12,
		"min":[-1.0,
		-1.0,
		-1.0],
		"max":[1.0,
		1.0,
		1.0]
	},
	{
		"bufferView":11,
		"count":3456,
		"type":"VEC2",
		"componentType":5126,
		"byteOffset":24,
		"min":[0.0,
		0.0],
		"max":[1.0,
		1.0]
	},
	{
		"bufferView":12,
		"count":11136,
		"type":"SCALAR",
		"componentType":5123,
		"byteOffset":0,
		"min":[0],
		"max":[11135]
	},
	{
		"bufferView":13,
		"count":11136,
		"type":"VEC3",
		"componentType":5126,
		"byteOffset":0,
		"min":[-0.6043459177017212,
		-12.199443817138672,
		-0.6043459177017212],
		"max":[0.6043459177017212,
		12.199443817138672,
		0.6043459177017212]
	},
	{
		"bufferView":13,
		"count":11136,
		"type":"VEC3",
		"componentType":5126,
		"byteOffset":12,
		"min":[-1.0,
		-1.0,
		-1.0],
		"max":[1.0,
		1.0,
		1.0]
	},
	{
		"bufferView":13,
		"count":11136,
		"type":"VEC2",
		"componentType":5126,
		"byteOffset":24,
		"min":[0.0,
		0.0],
		"max":[1.0,
		1.0]
	},
	{
		"bufferView":14,
		"count":3072,
		"type":"SCALAR",
		"componentType":5123,
		"byteOffset":0,
		"min":[0],
		"max":[3071]
	},
	{
		"bufferView":15,
		"count":3072,
		"type":"VEC3",
		"componentType":5126,
		"byteOffset":0,
		"min":[-0.4542354643344879,
		-12.19848918914795,
		-0.4542354643344879],
		"max":[0.4542354643344879,
		12.19848918914795,
		0.4542354643344879]
	},
	{
		"bufferView":15,
		"count":3072,
		"type":"VEC3",
		"componentType":5126,
		"byteOffset":12,
		"min":[-1.0,
		0.0,
		-1.0],
		"max":[1.0,
		0.0,
		1.0]
	},
	{
		"bufferView":15,
		"count":3072,
		"type":"VEC2",
		"componentType":5126,
		"byteOffset":24,
		"min":[0.00390625,
		0.0021206084638834],
		"max":[0.99609375,
		0.9978779554367065]
	},
	{
		"bufferView":16,
		"count":11136,
		"type":"SCALAR",
		"componentType":5123,
		"byteOffset":0,
		"min":[0],
		"max":[11135]
	},
	{
		"bufferView":17,
		"count":11136,
		"type":"VEC3",
		"componentType":5126,
		"byteOffset":0,
		"min":[-0.6043459177017212,
		-12.199443817138672,
		-0.6043459177017212],
		"max":[0.6043459177017212,
		12.199443817138672,
		0.6043459177017212]
	},
	{
		"bufferView":17,
		"count":11136,
		"type":"VEC3",
		"componentType":5126,
		"byteOffset":12,
		"min":[-1.0,
		-1.0,
		-1.0],
		"max":[1.0,
		1.0,
		1.0]
	},
	{
		"bufferView":17,
		"count":11136,
		"type":"VEC2",
		"componentType":5126,
		"byteOffset":24,
		"min":[0.0,
		0.0],
		"max":[1.0,
		1.0]
	},
	{
		"bufferView":18,
		"count":3072,
		"type":"SCALAR",
		"componentType":5123,
		"byteOffset":0,
		"min":[0],
		"max":[3071]
	},
	{
		"bufferView":19,
		"count":3072,
		"type":"VEC3",
		"componentType":5126,
		"byteOffset":0,
		"min":[-0.4542354643344879,
		-12.19848918914795,
		-0.4542354643344879],
		"max":[0.4542354643344879,
		12.19848918914795,
		0.4542354643344879]
	},
	{
		"bufferView":19,
		"count":3072,
		"type":"VEC3",
		"componentType":5126,
		"byteOffset":12,
		"min":[-1.0,
		0.0,
		-1.0],
		"max":[1.0,
		0.0,
		1.0]
	},
	{
		"bufferView":19,
		"count":3072,
		"type":"VEC2",
		"componentType":5126,
		"byteOffset":24,
		"min":[0.00390625,
		0.0021206084638834],
		"max":[0.99609375,
		0.9978779554367065]
	}],
	"bufferViews":[{
		"buffer":0,
		"byteOffset":0,
		"byteLength":72,
		"target":34963
	},
	{
		"buffer":0,
		"byteOffset":72,
		"byteLength":1152,
		"target":34962,
		"byteStride":32
	},
	{
		"buffer":1,
		"byteOffset":0,
		"byteLength":72,
		"target":34963
	},
	{
		"buffer":1,
		"byteOffset":72,
		"byteLength":1152,
		"target":34962,
		"byteStride":32
	},
	{
		"buffer":2,
		"byteOffset":0,
		"byteLength":6912,
		"target":34963
	},
	{
		"buffer":2,
		"byteOffset":6912,
		"byteLength":110592,
		"target":34962,
		"byteStride":32
	},
	{
		"buffer":3,
		"byteOffset":0,
		"byteLength":6912,
		"target":34963
	},
	{
		"buffer":3,
		"byteOffset":6912,
		"byteLength":110592,
		"target":34962,
		"byteStride":32
	},
	{
		"buffer":4,
		"byteOffset":0,
		"byteLength":6912,
		"target":34963
	},
	{
		"buffer":4,
		"byteOffset":6912,
		"byteLength":110592,
		"target":34962,
		"byteStride":32
	},
	{
		"buffer":5,
		"byteOffset":0,
		"byteLength":6912,
		"target":34963
	},
	{
		"buffer":5,
		"byteOffset":6912,
		"byteLength":110592,
		"target":34962,
		"byteStride":32
	},
	{
		"buffer":6,
		"byteOffset":0,
		"byteLength":22272,
		"target":34963
	},
	{
		"buffer":6,
		"byteOffset":22272,
		"byteLength":356352,
		"target":34962,
		"byteStride":32
	},
	{
		"buffer":7,
		"byteOffset":0,
		"byteLength":6144,
		"target":34963
	},
	{
		"buffer":7,
		"byteOffset":6144,
		"byteLength":98304,
		"target":34962,
		"byteStride":32
	},
	{
		"buffer":8,
		"byteOffset":0,
		"byteLength":22272,
		"target":34963
	},
	{
		"buffer":8,
		"byteOffset":22272,
		"byteLength":356352,
		"target":34962,
		"byteStride":32
	},
	{
		"buffer":9,
		"byteOffset":0,
		"byteLength":6144,
		"target":34963
	},
	{
		"buffer":9,
		"byteOffset":6144,
		"byteLength":98304,
		"target":34962,
		"byteStride":32
	}],
	"buffers":[{
		"uri":"data:application/octet-stream;base64,",
		"byteLength":1224
	},
	{
		"uri":"data:application/octet-stream;base64,",
		"byteLength":1224
	},
	{
		"uri":"data:application/octet-stream;base64,",
		"byteLength":117504
	},
	{
		"uri":"data:application/octet-stream;base64,",
		"byteLength":117504
	},
	{
		"uri":"data:application/octet-stream;base64,",
		"byteLength":117504
	},
	{
		"uri":"data:application/octet-stream;base64,",
		"byteLength":117504
	},
	{
		"uri":"data:application/octet-stream;base64,",
		"byteLength":378624
	},
	{
		"uri":"data:application/octet-stream;base64,",
		"byteLength":104448
	},
	{
		"uri":"data:application/octet-stream;base64,",
		"byteLength":378624
	},
	{
		"uri":"data:application/octet-stream;base64,",
		"byteLength":104448
	}],
	"materials":[{
		"pbrMetallicRoughness":{
			"baseColorFactor":[0.5999999999999998,
			0.522,
			0.0,
			1.0],
			"metallicFactor":0.0,
			"roughnessFactor":0.35
		},
		"emissiveFactor":[0.0,
		0.0,
		0.0],
		"alphaMode":"OPAQUE",
		"doubleSided":false,
		"name":"Logo White"
	},
	{
		"pbrMetallicRoughness":{
			"baseColorFactor":[0.38005632162094118,
			0.38005635142326357,
			0.38005632162094118,
			1.0],
			"metallicFactor":0.0,
			"roughnessFactor":0.8
		},
		"emissiveFactor":[0.0,
		0.0,
		0.0],
		"alphaMode":"OPAQUE",
		"doubleSided":false,
		"name":"White Cyc"
	},
	{
		"pbrMetallicRoughness":{
			"baseColorFactor":[0.3568627450980393,
			0.0,
			0.0,
			1.0],
			"metallicFactor":0.0,
			"roughnessFactor":0.20000000298023225
		},
		"emissiveFactor":[0.0,
		0.0,
		0.0],
		"alphaMode":"OPAQUE",
		"doubleSided":false,
		"name":"Mat"
	}]
}