{
	"asset":{
		"version":"2.0",
		"generator":"Maxon Cinema 4D 2024.5.1 (#200000219)"
	},
	"scenes":[{
		"nodes":[0,
		1,
		2,
		3]
	}],
	"nodes":[{
		"name":"Sphere",
		"translation":[-0.4248350262641907,
		7.293405532836914,
		2.3958334922790529],
		"rotation":[0.1907651573419571,
		0.0,
		0.0,
		-0.9816356897354126],
		"children":[4],
		"scale":[0.8500000238418579,
		0.8500000238418579,
		0.8500000238418579]
	},
	{
		"name":"Sphere",
		"translation":[0.19939492642879487,
		7.293405532836914,
		2.3958334922790529],
		"rotation":[0.1907651573419571,
		0.0,
		0.0,
		-0.9816356897354126],
		"children":[5],
		"scale":[0.8500000238418579,
		0.8500000238418579,
		0.8500000238418579]
	},
	{
		"name":"Sphere",
		"translation":[-0.13145467638969422,
		6.895027160644531,
		3.142409086227417],
		"rotation":[-0.04637081176042557,
		0.0,
		0.0,
		-0.9989243149757385],
		"children":[6],
		"scale":[0.8500000238418579,
		0.8500000238418579,
		0.8500000238418579]
	},
	{
		"name":"Cube",
		"translation":[-0.09993879497051239,
		4.726991176605225,
		-0.08843804895877838],
		"rotation":[0.0,
		0.0,
		0.0,
		-1.0],
		"children":[7],
		"scale":[0.8500000238418579,
		0.8500000238418579,
		0.8500000238418579]
	},
	{
		"name":"Sphere",
		"mesh":0
	},
	{
		"name":"Sphere",
		"mesh":1
	},
	{
		"name":"Sphere",
		"mesh":2
	},
	{
		"name":"Cube",
		"mesh":3
	}],
	"meshes":[{
		"name":"Sphere",
		"primitives":[{
			"attributes":{
				"POSITION":1,
				"NORMAL":2,
				"TEXCOORD_0":3
			},
			"indices":0,
			"material":0
		}]
	},
	{
		"name":"Sphere",
		"primitives":[{
			"attributes":{
				"POSITION":5,
				"NORMAL":6,
				"TEXCOORD_0":7
			},
			"indices":4,
			"material":0
		}]
	},
	{
		"name":"Sphere",
		"primitives":[{
			"attributes":{
				"POSITION":9,
				"NORMAL":10,
				"TEXCOORD_0":11
			},
			"indices":8,
			"material":0
		}]
	},
	{
		"name":"Cube",
		"primitives":[{
			"attributes":{
				"POSITION":13,
				"NORMAL":14,
				"TEXCOORD_0":15
			},
			"indices":12,
			"material":1
		}]
	}],
	"accessors":[{
		"bufferView":0,
		"count":2688,
		"type":"SCALAR",
		"componentType":5123,
		"byteOffset":0,
		"min":[0],
		"max":[2687]
	},
	{
		"bufferView":1,
		"count":2688,
		"type":"VEC3",
		"componentType":5126,
		"byteOffset":0,
		"min":[-0.13039489090442658,
		-0.17216043174266816,
		-0.10445594787597656],
		"max":[0.13039489090442658,
		0.17216043174266816,
		0.10445594787597656]
	},
	{
		"bufferView":1,
		"count":2688,
		"type":"VEC3",
		"componentType":5126,
		"byteOffset":12,
		"min":[-1.0,
		-0.9997662305831909,
		-0.9997594356536865],
		"max":[1.0,
		0.9997662305831909,
		0.9997594356536865]
	},
	{
		"bufferView":1,
		"count":2688,
		"type":"VEC2",
		"componentType":5126,
		"byteOffset":24,
		"min":[0.0,
		0.078125],
		"max":[1.0,
		0.921875]
	},
	{
		"bufferView":2,
		"count":2688,
		"type":"SCALAR",
		"componentType":5123,
		"byteOffset":0,
		"min":[0],
		"max":[2687]
	},
	{
		"bufferView":3,
		"count":2688,
		"type":"VEC3",
		"componentType":5126,
		"byteOffset":0,
		"min":[-0.13039489090442658,
		-0.17216043174266816,
		-0.10445594787597656],
		"max":[0.13039489090442658,
		0.17216043174266816,
		0.10445594787597656]
	},
	{
		"bufferView":3,
		"count":2688,
		"type":"VEC3",
		"componentType":5126,
		"byteOffset":12,
		"min":[-1.0,
		-0.9997662305831909,
		-0.9997594356536865],
		"max":[1.0,
		0.9997662305831909,
		0.9997594356536865]
	},
	{
		"bufferView":3,
		"count":2688,
		"type":"VEC2",
		"componentType":5126,
		"byteOffset":24,
		"min":[0.0,
		0.078125],
		"max":[1.0,
		0.921875]
	},
	{
		"bufferView":4,
		"count":2688,
		"type":"SCALAR",
		"componentType":5123,
		"byteOffset":0,
		"min":[0],
		"max":[2687]
	},
	{
		"bufferView":5,
		"count":2688,
		"type":"VEC3",
		"componentType":5126,
		"byteOffset":0,
		"min":[-0.3383134603500366,
		-0.20051603019237519,
		-0.30257999897003176],
		"max":[0.3383134603500366,
		0.2017747461795807,
		0.32286185026168826]
	},
	{
		"bufferView":5,
		"count":2688,
		"type":"VEC3",
		"componentType":5126,
		"byteOffset":12,
		"min":[-0.9999305605888367,
		-0.9981890916824341,
		-0.9999448657035828],
		"max":[0.9999237656593323,
		0.9999971389770508,
		0.9812904596328735]
	},
	{
		"bufferView":5,
		"count":2688,
		"type":"VEC2",
		"componentType":5126,
		"byteOffset":24,
		"min":[0.0,
		0.078125],
		"max":[1.0,
		0.921875]
	},
	{
		"bufferView":6,
		"count":23472,
		"type":"SCALAR",
		"componentType":5123,
		"byteOffset":0,
		"min":[0],
		"max":[23471]
	},
	{
		"bufferView":7,
		"count":23472,
		"type":"VEC3",
		"componentType":5126,
		"byteOffset":0,
		"min":[-1.1927495002746583,
		-4.213216781616211,
		-2.3624887466430666],
		"max":[1.210218906402588,
		4.362382411956787,
		4.111917018890381]
	},
	{
		"bufferView":7,
		"count":23472,
		"type":"VEC3",
		"componentType":5126,
		"byteOffset":12,
		"min":[-0.9999971389770508,
		-0.9999970197677612,
		-0.9999954700469971],
		"max":[0.9999970197677612,
		0.9999991655349731,
		0.9999970197677612]
	},
	{
		"bufferView":7,
		"count":23472,
		"type":"VEC2",
		"componentType":5126,
		"byteOffset":24,
		"min":[0.0,
		0.0],
		"max":[1.0,
		1.0]
	}],
	
	"bufferViews":[{
		"buffer":0,
		"byteOffset":0,
		"byteLength":5376,
		"target":34963
	},
	{
		"buffer":0,
		"byteOffset":5376,
		"byteLength":86016,
		"target":34962,
		"byteStride":32
	},
	{
		"buffer":1,
		"byteOffset":0,
		"byteLength":5376,
		"target":34963
	},
	{
		"buffer":1,
		"byteOffset":5376,
		"byteLength":86016,
		"target":34962,
		"byteStride":32
	},
	{
		"buffer":2,
		"byteOffset":0,
		"byteLength":5376,
		"target":34963
	},
	{
		"buffer":2,
		"byteOffset":5376,
		"byteLength":86016,
		"target":34962,
		"byteStride":32
	},
	{
		"buffer":3,
		"byteOffset":0,
		"byteLength":46944,
		"target":34963
	},
	{
		"buffer":3,
		"byteOffset":46944,
		"byteLength":751104,
		"target":34962,
		"byteStride":32
	}],
	"buffers":[{
		"uri":"data:application/octet-stream;base64,",
		"byteLength":91392
	},
	{
		"uri":"data:application/octet-stream;base64,",
		"byteLength":91392
	},
	{
		"uri":"data:application/octet-stream;base64,",
		"byteLength":91392
	},
	{
		"uri":"data:application/octet-stream;base64,",
		"byteLength":798048
	}],
	"materials":[{
		"pbrMetallicRoughness":{
			"baseColorFactor":[0.0,
			0.0,
			0.0,
			1.0],
			"metallicFactor":1.0,
			"roughnessFactor":0.0
		},
		"emissiveFactor":[0.0,
		0.0,
		0.0],
		"alphaMode":"OPAQUE",
		"doubleSided":false,
		"name":"Blue Glass"
	},
	{
		"pbrMetallicRoughness":{
			"baseColorFactor":[0.08503597122302154,
			0.05151018270275862,
			0.04130668184876553,
			1.0],
			"metallicFactor":0.0,
			"roughnessFactor":1.0
		},
		"emissiveFactor":[0.0,
		0.0,
		0.0],
		"alphaMode":"OPAQUE",
		"doubleSided":false,
		"name":"Logo White"
	}]
}